<svg xmlns="http://www.w3.org/2000/svg" width="390" height="844" viewBox="0 0 390 844">
  <defs>
    <linearGradient id="bgGrad3" x1="0" y1="0" x2="0" y2="1">
      <stop offset="0%" stop-color="#07131F"/>
      <stop offset="100%" stop-color="#0a1c2e"/>
    </linearGradient>
    <linearGradient id="c1Grad" x1="0" y1="0" x2="0" y2="1">
      <stop offset="0%" stop-color="#0d3060"/>
      <stop offset="100%" stop-color="#050e18"/>
    </linearGradient>
    <linearGradient id="c2Grad" x1="0" y1="0" x2="0" y2="1">
      <stop offset="0%" stop-color="#0a2040"/>
      <stop offset="100%" stop-color="#040c1a"/>
    </linearGradient>
    <linearGradient id="c3Grad" x1="0" y1="0" x2="0" y2="1">
      <stop offset="0%" stop-color="#082038"/>
      <stop offset="100%" stop-color="#030b18"/>
    </linearGradient>
    <clipPath id="frameClip3">
      <rect x="0" y="0" width="390" height="844" rx="36"/>
    </clipPath>
    <clipPath id="img1Clip"><rect x="14" y="362" width="178" height="110" rx="16 16 0 0"/></clipPath>
    <clipPath id="img2Clip"><rect x="198" y="362" width="178" height="110" rx="16 16 0 0"/></clipPath>
    <clipPath id="img3Clip"><rect x="14" y="532" width="178" height="110" rx="16 16 0 0"/></clipPath>
  </defs>

  <rect width="390" height="844" rx="36" fill="url(#bgGrad3)" clip-path="url(#frameClip3)"/>

  <!-- Notch -->
  <rect x="135" y="0" width="120" height="30" rx="0" fill="#040c14"/>
  <rect x="135" y="14" width="120" height="16" rx="8" fill="#040c14"/>

  <!-- Header -->
  <text x="20" y="54" font-family="Inter, sans-serif" font-size="20" font-weight="700" fill="#E8F4FF" letter-spacing="-0.4">Маршрутизаторы</text>
  <text x="20" y="72" font-family="'JetBrains Mono', monospace" font-size="9.5" fill="#6B90B0" letter-spacing="1">ОПУБЛИКОВАННЫЕ УЗЛЫ СЕТИ ПРОВАЙДЕРА</text>

  <!-- Filter box -->
  <rect x="14" y="82" width="362" height="62" rx="14" fill="#0B1E30" stroke="rgba(88,180,255,0.14)" stroke-width="1"/>
  <text x="26" y="97" font-family="Inter, sans-serif" font-size="9" font-weight="500" fill="#6B90B0" letter-spacing="0.6">МИН. ПРОПУСКНАЯ СПОСОБНОСТЬ, МБИТ/С</text>
  <rect x="26" y="101" width="230" height="30" rx="9" fill="#0F2840" stroke="rgba(88,180,255,0.18)" stroke-width="1"/>
  <text x="38" y="120" font-family="'JetBrains Mono', monospace" font-size="12" fill="rgba(232,244,255,0.4)">10000</text>
  <rect x="264" y="101" width="100" height="30" rx="9" fill="#0D79F2"/>
  <text x="314" y="120" font-family="Inter, sans-serif" font-size="12" font-weight="600" fill="white" text-anchor="middle">Фильтр</text>

  <!-- Grid annotation -->
  <text x="14" y="158" font-family="'JetBrains Mono', monospace" font-size="8" fill="rgba(88,225,255,0.4)">gap=12px · 2 колонки</text>

  <!-- ─── Card 1: KZ Backbone One ─── -->
  <rect x="14" y="162" width="178" height="170" rx="16" fill="#0C2035" stroke="rgba(88,180,255,0.14)" stroke-width="1"/>
  <!-- Image area -->
  <rect x="14" y="162" width="178" height="110" rx="16" fill="url(#c1Grad)"/>
  <g clip-path="url(#img1Clip)" opacity="0.55">
    <rect x="22" y="164" width="10" height="70" rx="1" fill="#1a4a7a"/>
    <rect x="36" y="164" width="10" height="70" rx="1" fill="#143d6a"/>
    <rect x="50" y="164" width="10" height="70" rx="1" fill="#1a4a7a"/>
    <rect x="64" y="164" width="10" height="70" rx="1" fill="#143d6a"/>
    <rect x="78" y="164" width="10" height="70" rx="1" fill="#1a4a7a"/>
    <rect x="92" y="164" width="10" height="70" rx="1" fill="#143d6a"/>
    <rect x="106" y="164" width="10" height="70" rx="1" fill="#1a4a7a"/>
    <rect x="120" y="164" width="10" height="70" rx="1" fill="#143d6a"/>
    <rect x="134" y="164" width="10" height="70" rx="1" fill="#1a4a7a"/>
    <rect x="148" y="164" width="10" height="70" rx="1" fill="#143d6a"/>
    <rect x="162" y="164" width="10" height="70" rx="1" fill="#1a4a7a"/>
    <circle cx="27" cy="171" r="1.5" fill="#58E1FF"/>
    <circle cx="41" cy="171" r="1.5" fill="#6CE080"/>
    <circle cx="55" cy="171" r="1.5" fill="#0D79F2"/>
  </g>
  <rect x="14" y="222" width="178" height="50" fill="linear-gradient(transparent,#0C2035)" opacity="0.9"/>
  <!-- Type badge -->
  <rect x="22" y="258" width="52" height="16" rx="4" fill="rgba(13,121,242,0.18)"/>
  <text x="48" y="269" font-family="'JetBrains Mono', monospace" font-size="7.5" fill="#58A8FF" text-anchor="middle" letter-spacing="0.5">central</text>
  <!-- Info -->
  <text x="22" y="291" font-family="Inter, sans-serif" font-size="11" font-weight="600" fill="#E8F4FF">KZ Backbone One</text>
  <text x="22" y="307" font-family="'JetBrains Mono', monospace" font-size="7.5" fill="#6B90B0" letter-spacing="0.5">ПРОПУСКНАЯ СПОСОБНОСТЬ</text>
  <text x="22" y="319" font-family="'JetBrains Mono', monospace" font-size="11" font-weight="600" fill="#58E1FF">100 000 <tspan font-size="8" fill="#6B90B0">Мбит/с</tspan></text>
  <text x="22" y="332" font-family="Inter, sans-serif" font-size="10.5" fill="#6B90B0">♥ 4</text>

  <!-- ─── Card 2: North Ring Hub ─── -->
  <rect x="198" y="162" width="178" height="170" rx="16" fill="#0C2035" stroke="rgba(88,180,255,0.14)" stroke-width="1"/>
  <rect x="198" y="162" width="178" height="110" rx="16" fill="url(#c2Grad)"/>
  <g opacity="0.45">
    <rect x="206" y="170" width="8" height="60" rx="1" fill="#1a3a6a"/>
    <rect x="218" y="170" width="8" height="60" rx="1" fill="#143060"/>
    <rect x="230" y="170" width="8" height="60" rx="1" fill="#1a3a6a"/>
    <rect x="242" y="170" width="8" height="60" rx="1" fill="#143060"/>
    <rect x="254" y="170" width="8" height="60" rx="1" fill="#1a3a6a"/>
    <rect x="266" y="170" width="8" height="60" rx="1" fill="#143060"/>
    <rect x="278" y="170" width="8" height="60" rx="1" fill="#1a3a6a"/>
    <rect x="290" y="170" width="8" height="60" rx="1" fill="#143060"/>
    <rect x="302" y="170" width="8" height="60" rx="1" fill="#1a3a6a"/>
    <rect x="314" y="170" width="8" height="60" rx="1" fill="#143060"/>
    <rect x="326" y="170" width="8" height="60" rx="1" fill="#1a3a6a"/>
    <rect x="338" y="170" width="8" height="60" rx="1" fill="#143060"/>
    <rect x="350" y="170" width="8" height="60" rx="1" fill="#1a3a6a"/>
    <rect x="362" y="170" width="8" height="60" rx="1" fill="#143060"/>
    <circle cx="210" cy="176" r="1.5" fill="#58E1FF" opacity="0.8"/>
    <circle cx="222" cy="176" r="1.5" fill="#6CE080" opacity="0.8"/>
    <circle cx="234" cy="176" r="1.5" fill="#58E1FF" opacity="0.8"/>
  </g>
  <!-- Type badge -->
  <rect x="206" y="258" width="70" height="16" rx="4" fill="rgba(88,225,255,0.12)"/>
  <text x="241" y="269" font-family="'JetBrains Mono', monospace" font-size="7.5" fill="#58E1FF" text-anchor="middle" letter-spacing="0.5">intermediate</text>
  <!-- Info -->
  <text x="206" y="291" font-family="Inter, sans-serif" font-size="11" font-weight="600" fill="#E8F4FF">North Ring Hub</text>
  <text x="206" y="307" font-family="'JetBrains Mono', monospace" font-size="7.5" fill="#6B90B0" letter-spacing="0.5">ПРОПУСКНАЯ СПОСОБНОСТЬ</text>
  <text x="206" y="319" font-family="'JetBrains Mono', monospace" font-size="11" font-weight="600" fill="#58E1FF">10 000 <tspan font-size="8" fill="#6B90B0">Мбит/с</tspan></text>
  <text x="206" y="332" font-family="Inter, sans-serif" font-size="10.5" fill="#6B90B0">♥ 3</text>

  <!-- ─── Card 3: Turan Residence Gateway ─── -->
  <rect x="14" y="344" width="178" height="170" rx="16" fill="#0C2035" stroke="rgba(88,180,255,0.14)" stroke-width="1"/>
  <rect x="14" y="344" width="178" height="110" rx="16" fill="url(#c3Grad)"/>
  <g opacity="0.4">
    <rect x="22" y="350" width="9" height="65" rx="1" fill="#1a4070"/>
    <rect x="35" y="350" width="9" height="65" rx="1" fill="#143460"/>
    <rect x="48" y="350" width="9" height="65" rx="1" fill="#1a4070"/>
    <rect x="61" y="350" width="9" height="65" rx="1" fill="#143460"/>
    <rect x="74" y="350" width="9" height="65" rx="1" fill="#1a4070"/>
    <rect x="87" y="350" width="9" height="65" rx="1" fill="#143460"/>
    <rect x="100" y="350" width="9" height="65" rx="1" fill="#1a4070"/>
    <rect x="113" y="350" width="9" height="65" rx="1" fill="#143460"/>
    <rect x="126" y="350" width="9" height="65" rx="1" fill="#1a4070"/>
    <rect x="139" y="350" width="9" height="65" rx="1" fill="#143460"/>
    <rect x="152" y="350" width="9" height="65" rx="1" fill="#1a4070"/>
    <rect x="165" y="350" width="9" height="65" rx="1" fill="#143460"/>
    <circle cx="26" cy="357" r="1.5" fill="#6CE080" opacity="0.8"/>
    <circle cx="39" cy="357" r="1.5" fill="#58E1FF" opacity="0.8"/>
    <circle cx="52" cy="357" r="1.5" fill="#FFD166" opacity="0.8"/>
  </g>
  <!-- Type badge -->
  <rect x="22" y="440" width="62" height="16" rx="4" fill="rgba(88,180,100,0.14)"/>
  <text x="53" y="451" font-family="'JetBrains Mono', monospace" font-size="7.5" fill="#6CE080" text-anchor="middle" letter-spacing="0.5">residential</text>
  <!-- Info -->
  <text x="22" y="473" font-family="Inter, sans-serif" font-size="10" font-weight="600" fill="#E8F4FF">Turan Residence</text>
  <text x="22" y="486" font-family="Inter, sans-serif" font-size="10" font-weight="600" fill="#E8F4FF">Gateway</text>
  <text x="22" y="499" font-family="'JetBrains Mono', monospace" font-size="7.5" fill="#6B90B0" letter-spacing="0.5">ПРОПУСКНАЯ СПОСОБНОСТЬ</text>
  <text x="22" y="508" font-family="'JetBrains Mono', monospace" font-size="11" font-weight="600" fill="#58E1FF">1 000 <tspan font-size="8" fill="#6B90B0">Мбит/с</tspan></text>
  <text x="22" y="514" font-family="Inter, sans-serif" font-size="10.5" fill="#6B90B0">♥ 6</text>

  <!-- Nav bar -->
  <rect x="0" y="772" width="390" height="72" fill="#0B1E30"/>
  <rect x="0" y="772" width="390" height="1" fill="rgba(88,180,255,0.14)"/>
  <text x="65" y="822" font-family="Inter, sans-serif" font-size="10" fill="#6B90B0" text-anchor="middle">Лента</text>
  <text x="195" y="822" font-family="Inter, sans-serif" font-size="10" fill="#6B90B0" text-anchor="middle">Добавление</text>
  <text x="325" y="822" font-family="Inter, sans-serif" font-size="10" font-weight="600" fill="#58E1FF" text-anchor="middle">Маршрутизаторы</text>
  <rect x="309" y="842" width="32" height="2" rx="1" fill="#58E1FF"/>
  <!-- Icons -->
  <rect x="53" y="796" width="8" height="5" rx="1" fill="none" stroke="#6B90B0" stroke-width="1.4"/>
  <rect x="53" y="804" width="4" height="4" rx="1" fill="none" stroke="#6B90B0" stroke-width="1.4"/>
  <rect x="59" y="804" width="4" height="4" rx="1" fill="none" stroke="#6B90B0" stroke-width="1.4"/>
  <circle cx="195" cy="800" r="6" fill="none" stroke="#6B90B0" stroke-width="1.4"/>
  <path d="M195 797v6M192 800h6" stroke="#6B90B0" stroke-width="1.4" stroke-linecap="round"/>
  <rect x="316" y="795" width="18" height="8" rx="1.5" fill="none" stroke="#58E1FF" stroke-width="1.4"/>
  <circle cx="320" cy="799" r="1" fill="#58E1FF"/>
  <circle cx="325" cy="799" r="1" fill="#58E1FF"/>
</svg>